<svg xmlns="http://www.w3.org/2000/svg" class="svg-bkgd08" viewBox="0 0 48 48" alt="Contacts"><g><path class="svg-icon08" d="M12 16v16h-.8c-.6 0-1.2-.6-1.2-1.2V15.2c0-.7.6-1.2 1.3-1.2h21.5c.7 0 1.2.5 1.2 1.2v.8H12z"></path></g><g><path class="svg-icon02" d="M36.8 18H15.2c-.7 0-1.2.6-1.2 1.3v14.5c0 .7.5 1.2 1.2 1.2h21.6c.7 0 1.2-.5 1.2-1.2V19.3c0-.7-.5-1.3-1.2-1.3zm-17.3 3c1.4 0 2.5 1 2.5 2.5S21 26 19.5 26C18 26 17 25 17 23.5s1-2.5 2.5-2.5zM23 32c0 .5 0 1-.6 1h-5.8c-.5 0-.6-.5-.6-1v-4c0-.5 0-1 .6-1H18s1 2.7 1.5 2.7C20 29.7 21 27 21 27h1.4c.6 0 .6.5.6 1v4zm3 0c-.6 0-1-.4-1-1s.4-1 1-1c.5 0 1 .5 1 1s-.5 1-1 1zm-1-5c0-.5.4-1 1-1s1 .5 1 1-.5 1-1 1-1-.4-1-1zm1-3c-.6 0-1-.4-1-1s.4-1 1-1c.5 0 1 .4 1 1s-.5 1-1 1zm3 8v-2h6v2h-6zm6-4h-6v-2h6v2zm0-4h-6v-2h6v2z"></path></g></svg>